<?xml version="1.0" standalone="no"?>
<!DOCTYPE svg PUBLIC "-//W3C//DTD SVG 20010904//EN"
 "http://www.w3.org/TR/2001/REC-SVG-20010904/DTD/svg10.dtd">
<svg version="1.0" xmlns="http://www.w3.org/2000/svg"
 width="308.000000pt" height="308.000000pt" viewBox="0 0 308.000000 308.000000"
 preserveAspectRatio="xMidYMid meet">
<metadata>
Created by potrace 1.14, written by Peter Selinger 2001-2017
</metadata>
<g transform="translate(0.000000,308.000000) scale(0.100000,-0.100000)"
fill="#000000" stroke="none">
<path d="M0 1540 l0 -701 108 3 107 3 3 311 2 311 43 29 c23 16 48 35 55 42
20 18 23 16 93 -36 64 -47 64 -48 69 -105 3 -31 3 -57 0 -57 -3 0 -3 -26 0
-57 3 -32 3 -85 0 -118 -3 -33 -3 -86 0 -117 3 -32 3 -58 0 -58 -3 0 -3 -33 0
-72 l5 -73 105 0 105 0 0 695 0 695 -107 3 -107 3 0 -68 c0 -60 0 -295 0 -348
0 -11 -1 -36 -1 -56 -1 -19 0 -39 1 -45 5 -30 -2 -127 -10 -116 -4 8 -11 12
-14 10 -4 -1 -14 4 -24 12 -10 8 -35 27 -55 42 l-36 27 -48 -36 c-27 -20 -52
-41 -56 -47 -4 -6 -9 -8 -12 -5 -3 3 -6 146 -6 317 l-1 312 -110 0 -109 0 0
-700z"/>
<path d="M958 2222 c-26 -10 -65 -30 -87 -47 -47 -36 -103 -124 -105 -165 -1
-17 -3 -30 -6 -30 -3 0 -5 -201 -5 -447 2 -482 2 -489 55 -566 37 -53 114
-104 178 -118 81 -17 216 -7 272 20 52 24 109 75 130 117 8 16 18 31 21 34 9
7 28 103 23 112 -3 4 -1 8 3 8 5 0 8 15 6 33 -4 28 -5 124 -2 160 0 6 -1 29
-3 50 -3 21 -1 40 4 43 5 3 5 10 1 16 -8 14 -8 69 -1 90 4 8 2 21 -2 29 -5 8
-4 19 2 26 6 7 6 13 1 13 -5 0 -8 19 -6 43 4 46 4 45 0 132 -1 33 2 66 7 73 5
7 4 12 -1 12 -6 0 -8 12 -6 28 5 35 5 39 -2 87 -8 47 -38 119 -59 140 -8 8
-23 26 -33 39 -11 13 -44 36 -74 52 -48 25 -66 28 -159 30 -77 2 -117 -2 -152
-14z m237 -227 l25 -24 0 -429 0 -429 -25 -27 c-25 -27 -29 -28 -113 -27 -59
0 -86 12 -102 42 -13 23 -17 816 -5 862 12 44 40 57 123 57 64 0 76 -3 97 -25z"/>
<path d="M1509 2205 c0 -19 0 -325 0 -680 0 -355 0 -654 0 -665 1 -20 6 -21
108 -18 l107 3 -1 220 c-1 208 6 249 23 127 11 -81 12 -82 124 -82 101 0 108
3 115 42 14 72 27 128 30 128 1 0 3 -91 3 -202 0 -112 1 -211 1 -220 1 -16 13
-18 105 -18 74 0 105 4 108 13 3 10 2 1334 -1 1375 -1 9 -30 12 -110 12 -75 0
-112 -4 -119 -12 -8 -11 -24 -82 -23 -103 0 -2 -5 -19 -10 -37 -6 -18 -12 -44
-15 -58 -4 -22 -16 -77 -19 -90 -2 -8 -16 -74 -20 -95 -2 -11 -4 -21 -5 -22
-2 -2 -4 -7 -5 -13 -1 -5 -3 -11 -4 -12 -1 -2 -4 -20 -6 -40 -2 -21 -8 -45
-13 -55 -5 -10 -8 -26 -6 -37 1 -10 -1 -15 -6 -10 -4 5 -11 25 -14 44 -3 19
-10 55 -16 80 -6 25 -12 58 -15 74 -2 15 -7 36 -10 46 -3 10 -8 27 -10 37 -2
10 -10 50 -19 88 -8 39 -17 82 -19 95 -6 29 -17 77 -24 103 -4 15 -18 17 -119
17 l-114 0 -1 -35z"/>
<path d="M2310 2228 c0 -11 96 -262 130 -343 38 -87 72 -173 75 -185 2 -8 18
-49 35 -90 l31 -75 2 -345 2 -345 106 -3 105 -3 1 28 c2 58 3 149 1 183 -1 20
1 43 5 53 3 9 3 17 -1 17 -4 0 -6 24 -5 53 3 73 3 156 0 197 -1 19 1 44 4 55
4 11 3 29 -1 40 -7 18 9 92 30 140 4 11 19 47 31 80 13 33 27 64 31 70 4 5 8
15 8 22 0 8 9 33 20 55 11 23 20 48 20 55 0 7 5 13 12 13 6 0 9 3 5 6 -5 5 10
51 46 134 6 14 11 27 12 30 1 3 5 14 10 25 26 65 55 139 55 142 0 2 -51 3
-114 3 l-113 0 -43 -107 c-24 -59 -46 -115 -51 -123 -4 -8 -21 -49 -37 -90
l-30 -74 -24 54 c-14 30 -37 89 -53 130 -15 41 -32 78 -37 81 -6 3 -9 9 -8 13
2 7 -15 56 -33 94 -10 21 -16 22 -119 22 -80 0 -108 -3 -108 -12z"/>
</g>
</svg>
